<svg width="24" height="24" viewBox="0 0 24 24" fill="none" xmlns="http://www.w3.org/2000/svg">
<g id="local_taxi">
<mask id="mask0_187_785" style="mask-type:alpha" maskUnits="userSpaceOnUse" x="0" y="0" width="24" height="24">
<rect id="Bounding box" width="24" height="24" fill="#D9D9D9"/>
</mask>
<g mask="url(#mask0_187_785)">
<path id="local_taxi_2" d="M4 21.3333V22.6667C4 23.0444 3.87222 23.3611 3.61667 23.6167C3.36111 23.8722 3.04444 24 2.66667 24H1.33333C0.955556 24 0.638889 23.8722 0.383333 23.6167C0.127778 23.3611 0 23.0444 0 22.6667V12L2.8 4C2.93333 3.6 3.17222 3.27778 3.51667 3.03333C3.86111 2.78889 4.24444 2.66667 4.66667 2.66667H8V0H16V2.66667H19.3333C19.7556 2.66667 20.1389 2.78889 20.4833 3.03333C20.8278 3.27778 21.0667 3.6 21.2 4L24 12V22.6667C24 23.0444 23.8722 23.3611 23.6167 23.6167C23.3611 23.8722 23.0444 24 22.6667 24H21.3333C20.9556 24 20.6389 23.8722 20.3833 23.6167C20.1278 23.3611 20 23.0444 20 22.6667V21.3333H4ZM3.73333 9.33333H20.2667L18.8667 5.33333H5.13333L3.73333 9.33333ZM6 17.3333C6.55556 17.3333 7.02778 17.1389 7.41667 16.75C7.80556 16.3611 8 15.8889 8 15.3333C8 14.7778 7.80556 14.3056 7.41667 13.9167C7.02778 13.5278 6.55556 13.3333 6 13.3333C5.44444 13.3333 4.97222 13.5278 4.58333 13.9167C4.19444 14.3056 4 14.7778 4 15.3333C4 15.8889 4.19444 16.3611 4.58333 16.75C4.97222 17.1389 5.44444 17.3333 6 17.3333ZM18 17.3333C18.5556 17.3333 19.0278 17.1389 19.4167 16.75C19.8056 16.3611 20 15.8889 20 15.3333C20 14.7778 19.8056 14.3056 19.4167 13.9167C19.0278 13.5278 18.5556 13.3333 18 13.3333C17.4444 13.3333 16.9722 13.5278 16.5833 13.9167C16.1944 14.3056 16 14.7778 16 15.3333C16 15.8889 16.1944 16.3611 16.5833 16.75C16.9722 17.1389 17.4444 17.3333 18 17.3333Z" fill="#001F3F"/>
</g>
</g>
</svg>
