<svg width="17" height="20" viewBox="0 0 17 20" fill="none" xmlns="http://www.w3.org/2000/svg">
<path id="Subtract" fill-rule="evenodd" clip-rule="evenodd" d="M6.07143 0C5.69255 0 5.32919 0.15051 5.06128 0.418419C4.79337 0.686328 4.64286 1.04969 4.64286 1.42857V2.14286C4.64286 2.52174 4.79337 2.8851 5.06128 3.15301C5.32919 3.42092 5.69255 3.57143 6.07143 3.57143H10.3571C10.736 3.57143 11.0994 3.42092 11.3673 3.15301C11.6352 2.8851 11.7857 2.52174 11.7857 2.14286V1.42857C11.7857 1.04969 11.6352 0.686328 11.3673 0.418419C11.0994 0.15051 10.736 0 10.3571 0H6.07143ZM2.14286 1.42857H2.85714V2.14286C2.85714 2.99534 3.19579 3.81291 3.79859 4.4157C4.40138 5.0185 5.21895 5.35714 6.07143 5.35714H10.3571C11.2096 5.35714 12.0272 5.0185 12.63 4.4157C13.2328 3.81291 13.5714 2.99534 13.5714 2.14286V1.42857H14.2857C14.854 1.42857 15.3991 1.65434 15.8009 2.0562C16.2028 2.45806 16.4286 3.00311 16.4286 3.57143V17.8571C16.4286 18.4255 16.2028 18.9705 15.8009 19.3724C15.3991 19.7742 14.854 20 14.2857 20H2.14286C1.57454 20 1.02949 19.7742 0.627628 19.3724C0.225765 18.9705 0 18.4255 0 17.8571V3.57143C0 3.00311 0.225765 2.45806 0.627628 2.0562C1.02949 1.65434 1.57454 1.42857 2.14286 1.42857ZM3.92857 15C3.92857 14.6055 4.24837 14.2857 4.64286 14.2857C5.03735 14.2857 5.35714 14.6055 5.35714 15C5.35714 15.3945 5.03735 15.7143 4.64286 15.7143C4.24837 15.7143 3.92857 15.3945 3.92857 15ZM4.64286 11.4286C4.24837 11.4286 3.92857 11.7484 3.92857 12.1429C3.92857 12.5373 4.24837 12.8571 4.64286 12.8571C5.03735 12.8571 5.35714 12.5373 5.35714 12.1429C5.35714 11.7484 5.03735 11.4286 4.64286 11.4286ZM3.92857 9.28571C3.92857 8.89122 4.24837 8.57143 4.64286 8.57143C5.03735 8.57143 5.35714 8.89122 5.35714 9.28571C5.35714 9.6802 5.03735 10 4.64286 10C4.24837 10 3.92857 9.6802 3.92857 9.28571ZM7.5 14.2857C7.10551 14.2857 6.78571 14.6055 6.78571 15C6.78571 15.3945 7.10551 15.7143 7.5 15.7143H13.2143C13.6088 15.7143 13.9286 15.3945 13.9286 15C13.9286 14.6055 13.6088 14.2857 13.2143 14.2857H7.5ZM6.78571 12.1429C6.78571 11.7484 7.10551 11.4286 7.5 11.4286H13.2143C13.6088 11.4286 13.9286 11.7484 13.9286 12.1429C13.9286 12.5373 13.6088 12.8571 13.2143 12.8571H7.5C7.10551 12.8571 6.78571 12.5373 6.78571 12.1429ZM7.5 8.57143C7.10551 8.57143 6.78571 8.89122 6.78571 9.28571C6.78571 9.6802 7.10551 10 7.5 10H13.2143C13.6088 10 13.9286 9.6802 13.9286 9.28571C13.9286 8.89122 13.6088 8.57143 13.2143 8.57143H7.5Z" fill="#292A2D" fill-opacity="0.75"/>
</svg>
