<svg width="24" height="14" viewBox="0 0 24 14" fill="none" xmlns="http://www.w3.org/2000/svg">
<g id="Group 134">
<path id="directions_car" d="M2.51163 11.7209V12.5581C2.51163 12.7953 2.4314 12.9942 2.27093 13.1547C2.11047 13.3151 1.91163 13.3953 1.67442 13.3953H0.837209C0.6 13.3953 0.401163 13.3151 0.240698 13.1547C0.0802326 12.9942 0 12.7953 0 12.5581V5.86047L1.75814 0.837209C1.84186 0.586047 1.99186 0.383721 2.20814 0.230233C2.42442 0.0767442 2.66512 0 2.93023 0H12.1395C12.4047 0 12.6453 0.0767442 12.8616 0.230233C13.0779 0.383721 13.2279 0.586047 13.3116 0.837209L15.0698 5.86047V12.5581C15.0698 12.7953 14.9895 12.9942 14.8291 13.1547C14.6686 13.3151 14.4698 13.3953 14.2326 13.3953H13.3953C13.1581 13.3953 12.9593 13.3151 12.7988 13.1547C12.6384 12.9942 12.5581 12.7953 12.5581 12.5581V11.7209H2.51163ZM2.34419 4.18605H12.7256L11.8465 1.67442H3.22326L2.34419 4.18605ZM3.76744 9.2093C4.11628 9.2093 4.41279 9.08721 4.65698 8.84302C4.90116 8.59884 5.02326 8.30233 5.02326 7.95349C5.02326 7.60465 4.90116 7.30814 4.65698 7.06395C4.41279 6.81977 4.11628 6.69767 3.76744 6.69767C3.4186 6.69767 3.12209 6.81977 2.87791 7.06395C2.63372 7.30814 2.51163 7.60465 2.51163 7.95349C2.51163 8.30233 2.63372 8.59884 2.87791 8.84302C3.12209 9.08721 3.4186 9.2093 3.76744 9.2093ZM11.3023 9.2093C11.6512 9.2093 11.9477 9.08721 12.1919 8.84302C12.436 8.59884 12.5581 8.30233 12.5581 7.95349C12.5581 7.60465 12.436 7.30814 12.1919 7.06395C11.9477 6.81977 11.6512 6.69767 11.3023 6.69767C10.9535 6.69767 10.657 6.81977 10.4128 7.06395C10.1686 7.30814 10.0465 7.60465 10.0465 7.95349C10.0465 8.30233 10.1686 8.59884 10.4128 8.84302C10.657 9.08721 10.9535 9.2093 11.3023 9.2093Z" fill="white"/>
<path id="vpn_key" d="M24 9.74211C24 10.7569 23.6202 11.6195 22.8605 12.3298C22.1008 13.0402 21.1783 13.3954 20.093 13.3954C19.0078 13.3954 18.0853 13.0402 17.3256 12.3298C16.5659 11.6195 16.1861 10.7569 16.1861 9.74211C16.1861 8.92012 16.4329 8.20215 16.9267 7.5882C17.4205 6.97424 18.0419 6.54549 18.7907 6.30194V3.62396e-05H21.3954V1.2178H24V3.65331H21.3954V6.30194C22.1442 6.54549 22.7655 6.97424 23.2593 7.5882C23.7531 8.20215 24 8.92012 24 9.74211ZM21.3954 9.74211C21.3954 9.40722 21.2678 9.12054 21.0128 8.88207C20.7578 8.64359 20.4512 8.52435 20.093 8.52435C19.7349 8.52435 19.4283 8.64359 19.1733 8.88207C18.9182 9.12054 18.7907 9.40722 18.7907 9.74211C18.7907 10.077 18.9182 10.3637 19.1733 10.6022C19.4283 10.8406 19.7349 10.9599 20.093 10.9599C20.4512 10.9599 20.7578 10.8406 21.0128 10.6022C21.2678 10.3637 21.3954 10.077 21.3954 9.74211Z" fill="white"/>
</g>
</svg>
