<svg width="121" height="121" viewBox="0 0 121 121" fill="none" xmlns="http://www.w3.org/2000/svg">
<g clip-path="url(#clip0_528_3418)">
<path fill-rule="evenodd" clip-rule="evenodd" d="M49.4518 0.735346C42.0056 2.29832 32.4144 6.15386 27.704 9.4767C26.2405 10.5091 25.7544 11.3884 25.914 12.7136C26.3393 16.2441 27.9224 16.2391 35.1666 12.6843C45.5898 7.56862 48.8811 6.80539 60.5 6.80539C72.1525 6.80539 75.4947 7.58438 85.7969 12.7065C93.0189 16.2971 94.6542 16.2985 95.0859 12.7136C95.2456 11.3884 94.7595 10.5091 93.296 9.4767C89.86 7.05241 84.3749 4.54291 78.0414 2.49736C72.89 0.833435 70.4714 0.49621 62.2899 0.300748C56.9738 0.173304 51.1966 0.369482 49.4518 0.735346ZM48.1251 13.6172C39.6529 15.8367 33.3838 19.5584 26.4711 26.4711C16.6321 36.3093 13.2692 44.1164 12.1222 59.7841C11.3246 70.6741 10.7568 72.7325 7.46262 76.6754C4.69108 79.9932 4.75551 79.8049 5.75287 81.6686C7.06096 84.1122 10.2879 83.4514 13.1031 80.1615C16.2741 76.457 17.8414 70.8695 18.3598 61.4272C18.8674 52.1661 20.1812 46.8077 23.4897 40.4971C29.9006 28.2682 44.891 18.6727 57.6554 18.6262C62.3766 18.609 65.2992 15.4673 62.8627 13.0308C61.5869 11.7549 54.0942 12.0528 48.1251 13.6172ZM16.7853 18.7285C7.46763 27.3174 0 44.7092 0 57.8209C0 62.0902 0.801177 63.7219 2.89612 63.7219C5.16219 63.7219 6.24188 61.3671 6.67218 55.4882C7.46692 44.6311 11.3847 35.2418 19.1524 25.5776C23.9014 19.6693 24.2888 18.6634 22.5024 16.8763C20.8814 15.2561 20.3753 15.42 16.7853 18.7285ZM77.8624 16.5248C77.1264 16.9536 76.6095 18.1085 76.6095 19.325C76.6095 21.1349 77.1722 21.6927 81.0843 23.7619C87.7572 27.2902 94.5783 34.5301 98.0172 41.7336C101.434 48.8905 102.385 53.2279 102.385 61.6563C102.385 68.819 103.078 70.8817 105.488 70.8817C108.378 70.8817 108.828 69.6237 108.828 61.5454C108.828 52.3114 107.162 45.1094 103.32 37.732C99.8808 31.1285 90.3111 21.3734 84.027 18.0656C79.0452 15.4429 79.517 15.5611 77.8624 16.5248ZM103.101 23.6273C102.244 25.2282 102.715 26.4153 106.022 30.9796C108.679 34.649 112.284 43.4512 113.524 49.3036C115.39 58.1058 114.765 67.9691 111.645 78.94C110.787 81.9578 110.81 82.4777 111.841 83.5079C112.617 84.2855 113.607 84.5196 114.825 84.2139C116.358 83.8287 116.955 82.8249 118.605 77.856C120.394 72.4676 120.566 70.992 120.593 60.858C120.615 52.3179 120.325 48.6879 119.336 45.1065C117.703 39.1933 112.461 28.3735 109.539 24.8802C107.001 21.8466 104.331 21.3275 103.101 23.6273ZM50.1183 25.4201C48.3463 26.0043 45.6077 27.2193 44.0325 28.1207C41.7407 29.431 41.1686 30.1677 41.1686 31.8059C41.1686 35.259 42.9221 35.6242 48.0778 33.2443C52.2333 31.3254 53.3016 31.145 60.5 31.145C67.8717 31.145 68.6843 31.2911 73.2021 33.4311C79.4583 36.3946 84.6134 41.5532 87.5596 47.7979C89.6388 52.2047 89.8593 53.3589 90.1013 61.0764C90.682 79.6195 85.2885 98.7496 76.3911 109.703C72.2413 114.812 72.1346 115.032 73.0217 116.689C73.5236 117.628 74.5217 118.136 75.8606 118.136C78.6901 118.136 83.4671 112.119 88.0816 102.743C94.2039 90.3011 96.9647 76.5916 96.5501 60.6941L96.2988 51.0799L93.3096 45.05C89.3009 36.9638 84.0757 31.7178 76.0868 27.7592C70.1915 24.838 69.8922 24.7714 61.7036 24.5666C55.7481 24.4177 52.4123 24.664 50.1183 25.4201ZM32.8139 37.1728C30.565 38.9413 26.6171 46.2965 25.3384 51.0978C24.1263 55.65 24.0561 61.7165 25.2024 62.8628C27.5637 65.2241 30.787 62.3974 30.787 57.9648C30.787 54.15 32.5569 48.8726 35.4423 44.0798C38.2424 39.431 38.3455 38.2618 36.0902 36.7669C34.7743 35.8948 34.3755 35.9442 32.8139 37.1728ZM56.5621 36.5413C50.0382 37.659 44.601 41.0097 40.8615 46.2163C37.4742 50.9339 36.5441 54.4679 35.7938 65.4725C35.0886 75.8191 33.3996 83.611 30.6882 89.0331C28.6369 93.1357 24.5694 97.191 21.5237 98.1711C20.1211 98.6222 18.571 99.311 18.0784 99.7019C16.6629 100.825 17.0331 102.969 18.8474 104.157C20.3395 105.135 20.8507 105.132 23.8191 104.12C34.4428 100.501 40.787 87.2145 42.2405 65.5455C42.7316 58.2247 43.2414 55.229 44.4263 52.7073C47.3153 46.5621 53.1849 42.882 60.2537 42.7846C66.855 42.6937 71.9241 45.423 75.9085 51.2138C78.5147 55.0021 81.1287 55.5627 82.469 52.6207C83.19 51.0384 82.9709 50.3697 80.6125 46.9445C75.2183 39.1131 65.6672 34.9812 56.5621 36.5413ZM56.7454 48.7394C51.8567 50.2165 46.5413 58.433 48.4838 61.511C50.6267 64.909 53.6488 64.1429 54.6404 59.9509C54.9727 58.5461 55.8791 56.8221 56.6545 56.1204C58.6571 54.3083 62.6665 54.4708 64.6326 56.444C66.0059 57.8223 66.2092 58.7294 66.0932 62.9616C65.9092 69.6524 64.7479 75.7024 62.1167 83.6783C59.7711 90.7887 59.8993 92.4999 62.8105 92.9359C65.0916 93.2781 66.3774 91.3708 68.6464 84.2805C71.3535 75.8205 72.4453 69.8034 72.5706 62.648C72.6558 57.808 72.4167 56.5099 71.0248 54.271C68.0679 49.5155 61.9799 47.1571 56.7454 48.7394ZM79.1662 68.4266C78.5476 69.0459 78.0414 70.3648 78.0414 71.3571C78.0414 74.9105 75.0615 87.6964 72.968 93.1249C70.0576 100.671 65.9156 106.844 59.9208 112.566C55.1903 117.081 54.9311 117.488 55.7058 119.189C57.0977 122.242 59.5055 121.546 64.8495 116.547C75.3071 106.765 81.5977 93.3906 83.8673 76.1155C84.5668 70.7922 84.5547 69.3223 83.805 68.4187C82.6172 66.9875 80.6025 66.9911 79.1662 68.4266ZM24.5129 68.6135C24.0153 68.9292 22.9578 71.5347 22.163 74.4036C21.3683 77.2725 20.1025 80.8259 19.3507 82.2994C17.8701 85.2019 13.8362 89.0997 11.5687 89.8193C10.7919 90.0656 9.9578 90.7837 9.7158 91.4152C9.16521 92.85 11.1177 95.9409 12.5747 95.9409C14.5988 95.9409 19.098 93.1736 21.4736 90.4679C26.2749 84.9993 30.7813 71.6728 28.6834 69.1454C27.6689 67.9226 25.9477 67.7035 24.5129 68.6135ZM47.9704 75.1776C47.1828 75.9651 46.5385 77.3792 46.5385 78.3193C46.5385 81.1116 43.0166 92.4183 40.9839 96.1535C38.5661 100.596 35.1917 103.538 31.3361 104.567C27.0038 105.723 26.1639 106.26 25.899 108.046C24.9231 114.627 37.8193 111.297 43.7547 103.436C47.2201 98.8456 49.5284 93.6104 51.4579 85.9602C53.3889 78.3056 53.4233 75.4639 51.5975 74.4866C49.7496 73.4979 49.6265 73.5215 47.9704 75.1776ZM101.753 81.1617C101.309 81.6965 100.336 84.5153 99.5902 87.4265C97.9706 93.7478 95.1411 100.346 92.6495 103.614C90.1085 106.945 90.4851 109.824 93.5015 110.119C95.4654 110.31 96.0139 109.901 98.3558 106.501C101.298 102.228 104.73 93.9369 106.247 87.4358C107.111 83.7299 107.106 82.9574 106.206 81.6729C105.017 79.9753 102.936 79.7362 101.753 81.1617ZM54.5409 100.416C50.6202 105.711 47.4277 108.686 43.5213 110.682C39.3536 112.811 38.3183 114.462 39.8111 116.593C41.1901 118.562 42.2233 118.533 46.4153 116.408C53.0889 113.027 61.574 103.72 61.574 99.7814C61.574 98.2542 59.779 96.6568 58.0635 96.6568C57.6561 96.6568 56.071 98.3487 54.5409 100.416Z" fill="white" fill-opacity="0.31"/>
<path fill-rule="evenodd" clip-rule="evenodd" d="M50.1982 1.05902C43.3599 2.30052 38.4082 3.96158 32.6496 6.94792C26.9948 9.87984 25.3073 11.5223 25.9309 13.4862C26.7192 15.9692 28.2349 15.7566 35.2694 12.1753C43.773 7.84504 50.8218 6.15175 60.335 6.15175C69.8632 6.15175 76.8948 7.84432 85.4407 12.1953C90.9201 14.9855 92.637 15.5661 93.7081 14.9926C95.0906 14.253 95.4522 12.4552 94.5121 10.9989C94.2229 10.5514 91.8702 9.02425 89.2848 7.60519C77.3172 1.03754 63.2755 -1.31373 50.1982 1.05902ZM50.3113 13.3337C35.598 16.4031 22.6388 26.943 16.3926 40.921C13.5452 47.2932 12.6753 51.3392 12.0109 61.3113C11.3973 70.5087 10.0448 74.9993 7.09856 77.6155C5.38594 79.1362 5.12532 80.8975 6.42196 82.1942C7.97634 83.7486 9.69755 83.0977 12.5249 79.8859C16.1958 75.716 16.9683 73.0504 17.7265 61.932C18.7582 46.8113 22.4119 38.2354 31.4582 29.7002C38.8192 22.7552 50.2025 17.9553 59.4149 17.9117C62.2073 17.8988 63.7065 16.3938 62.9948 14.3196C62.1543 11.8695 58.6395 11.5968 50.3113 13.3337ZM14.176 21.6584C6.58806 30.8021 2.16261 40.9052 0.538064 52.7947C-0.452131 60.0383 -0.114191 62.6652 1.87336 63.185C4.48238 63.8673 5.35372 62.5442 5.87066 57.1164C7.00548 45.2004 10.9677 34.9397 17.5182 26.9537C19.4091 24.649 21.5527 22.0314 22.2823 21.1364C23.3569 19.8183 23.4543 19.2219 22.7942 17.989C21.2133 15.0356 18.8305 16.0501 14.176 21.6584ZM77.1891 17.5071C75.6511 19.3601 76.7129 20.9116 81.4563 23.7433C95.1307 31.9076 102.889 46.1104 102.923 63.0418C102.936 69.0467 103.546 70.8817 105.534 70.8817C107.83 70.8817 108.663 68.6672 108.663 62.5664C108.663 53.7985 106.999 46.5378 103.211 38.7802C100.591 33.4133 98.8645 31.0133 94.452 26.6086C89.3277 21.493 81.7283 16.4675 79.1165 16.4675C78.5308 16.4675 77.6637 16.9351 77.1891 17.5071ZM103.795 23.0545C102.407 24.4421 102.777 25.9163 105.54 30.0195C114.83 43.815 117.375 62.0917 112.161 77.5697C110.734 81.8054 110.733 81.862 112.11 83.2388C114.276 85.4039 116.147 83.896 117.883 78.5856C122.496 64.4809 121.2 47.717 114.438 34.009C109.477 23.9524 106.234 20.6152 103.795 23.0545ZM51.575 25.4473C49.513 26.0022 46.1909 27.2852 44.1919 28.2983C41.0215 29.905 40.5855 30.3868 40.7802 32.0744C41.0745 34.6218 43.8002 34.9784 47.7145 32.9815C49.2996 32.1725 52.8409 31.1264 55.583 30.656C65.2201 29.0036 75.1729 32.403 82.0806 39.7067C89.5633 47.619 91.563 55.1446 90.1604 70.1171C88.5767 87.027 83.6049 101.249 76.1294 110.255C72.6891 114.399 72.198 115.975 73.9042 117.392C75.6698 118.857 77.328 117.936 80.9465 113.478C88.4328 104.256 94.0568 89.1663 95.6992 73.8967C97.26 59.3875 96.5727 52.9981 92.5339 44.4758C85.46 29.5491 67.436 21.1751 51.575 25.4473ZM30.2948 40.4535C24.7395 48.8232 22.2959 61.8554 26.0139 63.2824C28.3337 64.173 29.6769 62.5227 30.1473 58.2039C30.806 52.1597 31.6995 49.5414 34.9364 44.1751C37.3178 40.2265 37.6951 39.1225 37.065 37.9454C35.6195 35.2447 33.1436 36.1619 30.2948 40.4535ZM53.0492 37.5029C48.8607 38.8726 45.5186 41.0721 42.4241 44.4973C38.1562 49.222 36.9634 52.7897 36.251 62.9602C35.4305 74.6786 33.9119 82.3245 31.2735 88.0215C28.8664 93.2202 24.5906 97.7273 21.4023 98.4275C18.741 99.0117 17.5547 100.383 17.8582 102.524C18.164 104.677 20.5575 105.016 24.5884 103.477C30.3921 101.261 35.6524 94.3393 38.7504 84.8433C40.3435 79.9589 42.0683 68.035 42.0733 61.8676C42.0812 52.8907 46.9255 45.7882 54.8928 43.0725C62.0963 40.6167 71.6166 44.1572 75.7227 50.8172C77.691 54.0105 79.5446 54.9878 81.1327 53.6697C82.7357 52.3394 82.3742 49.8922 80.1217 46.8249C77.2227 42.8778 75.2216 41.2017 70.7166 38.9463C66.0055 36.5872 57.882 35.9235 53.0492 37.5029ZM55.3231 49.6573C51.265 51.5361 48.5214 55.7739 48.5214 60.1636C48.5214 62.8965 50.5648 64.0735 52.7062 62.5736C53.5547 61.9793 54.2492 60.7492 54.2492 59.8414C54.2492 58.9328 55.0983 57.3398 56.1365 56.3016C58.6696 53.7692 62.0003 53.7692 64.5335 56.3016C66.0914 57.8603 66.4208 58.8426 66.4208 61.9356C66.4208 67.5517 64.5657 77.0978 62.1378 83.9769C59.8567 90.4401 59.8896 92.0095 62.3254 92.7827C64.5184 93.4787 66.0449 91.1833 68.4806 83.528C70.9371 75.8077 72.4715 65.4747 72.0018 59.8135C71.6503 55.5742 70.2799 53.0733 66.9434 50.5824C64.5399 48.7881 58.278 48.2898 55.3231 49.6573ZM79.3606 68.6815C78.3955 69.6467 77.8707 71.1044 77.8606 72.8507C77.8413 76.1864 75.5974 86.306 73.6299 91.9314C71.0832 99.2115 67.169 105.337 61.2908 111.242C55.6711 116.888 54.7804 118.645 56.7207 120.255C58.4333 121.677 60.6701 120.402 66.0205 114.954C74.1297 106.695 79.5568 95.8808 82.2088 82.6953C84.2328 72.6294 84.2751 69.5028 82.4035 68.2448C80.9952 67.2976 80.7031 67.3391 79.3606 68.6815ZM24.6794 68.9407C24.0593 69.4176 23.0212 71.902 22.3725 74.4616C20.4322 82.124 15.5406 89.4971 12.3975 89.4971C10.8216 89.4971 9.66963 91.5112 10.15 93.4257C10.745 95.7956 13.3784 95.8156 17.3635 93.4801C20.6004 91.5835 23.2904 88.1375 25.5657 82.9746C27.4545 78.6895 29.3962 71.0786 28.8335 70.1686C27.9077 68.6701 25.8306 68.0558 24.6794 68.9407ZM47.5598 75.673C47.3565 76.3847 46.4916 79.8672 45.6367 83.4113C42.3217 97.1552 37.1366 104.073 29.0511 105.536C24.1588 106.421 24.7996 110.983 29.8143 110.969C36.2603 110.952 43.2088 105.331 47.2211 96.8889C50.0965 90.8396 53.3456 77.6105 52.3483 76.0167C51.2621 74.2812 48.0223 74.0492 47.5598 75.673ZM102.091 81.0844C101.476 81.577 100.435 84.1939 99.776 86.901C98.2023 93.3706 95.7278 99.3661 92.9849 103.353C90.575 106.856 90.2993 108.077 91.6231 109.401C94.0424 111.821 97.1641 108.954 101.081 100.72C103.57 95.4877 106.515 85.9974 106.515 83.2116C106.515 82.3646 105.893 81.3386 105.131 80.9305C103.403 80.0061 103.441 80.004 102.091 81.0844ZM54.3766 100.863C51.6144 105.127 47.4632 108.963 43.3628 111.042C41.6716 111.899 40.0507 112.96 39.7614 113.399C38.7984 114.862 39.1965 116.645 40.6614 117.429C45.4548 119.994 64.0459 102.487 60.7481 98.5127C58.951 96.3476 56.7845 97.1466 54.3766 100.863Z" fill="white" fill-opacity="0.989"/>
</g>
<defs>
<clipPath id="clip0_528_3418">
<rect width="121" height="121" fill="white"/>
</clipPath>
</defs>
</svg>
