<svg width="20" height="20" viewBox="0 0 20 20" fill="none" xmlns="http://www.w3.org/2000/svg">
<g id="chat-bubble-typing-oval--messages-message-bubble-typing-chat">
<path id="Subtract" fill-rule="evenodd" clip-rule="evenodd" d="M9.95229 4.05473e-07C11.44 -0.000424206 12.9089 0.332647 14.251 0.974718C15.593 1.61679 16.7741 2.55153 17.7073 3.71019C18.6405 4.86885 19.3021 6.22196 19.6434 7.67C19.9848 9.11804 19.9972 10.6242 19.6797 12.0777C19.3623 13.5311 18.7231 14.895 17.8091 16.0688C16.8952 17.2427 15.7297 18.1968 14.3984 18.8609C13.0671 19.525 11.6039 19.8823 10.1164 19.9064C8.62882 19.9305 7.1548 19.6208 5.80271 19.0002L0.84154 19.8976C0.717126 19.9199 0.589045 19.9087 0.470321 19.8654C0.351597 19.8221 0.246464 19.7481 0.165612 19.6509C0.0847605 19.5538 0.0310734 19.437 0.0100099 19.3124C-0.0110536 19.1878 0.00125765 19.0598 0.0456919 18.9415L1.46849 15.154C0.544308 13.6457 0.0388062 11.9182 0.00401479 10.1496C-0.0307766 8.38095 0.4064 6.63499 1.27054 5.09143C2.13468 3.54787 3.39457 2.26249 4.92051 1.3676C6.44644 0.472711 8.1833 0.000646091 9.95229 4.05473e-07ZM7.09239 9.95383C7.09239 10.3335 6.94158 10.6975 6.67314 10.966C6.40471 11.2344 6.04063 11.3852 5.661 11.3852C5.28138 11.3852 4.9173 11.2344 4.64886 10.966C4.38043 10.6975 4.22962 10.3335 4.22962 9.95383C4.22962 9.5742 4.38043 9.21013 4.64886 8.94169C4.9173 8.67325 5.28138 8.52245 5.661 8.52245C6.04063 8.52245 6.40471 8.67325 6.67314 8.94169C6.94158 9.21013 7.09239 9.5742 7.09239 9.95383ZM9.95515 11.3852C10.3348 11.3852 10.6989 11.2344 10.9673 10.966C11.2357 10.6975 11.3865 10.3335 11.3865 9.95383C11.3865 9.5742 11.2357 9.21013 10.9673 8.94169C10.6989 8.67325 10.3348 8.52245 9.95515 8.52245C9.57552 8.52245 9.21145 8.67325 8.94301 8.94169C8.67457 9.21013 8.52377 9.5742 8.52377 9.95383C8.52377 10.3335 8.67457 10.6975 8.94301 10.966C9.21145 11.2344 9.57552 11.3852 9.95515 11.3852ZM14.2493 11.3852C14.6289 11.3852 14.993 11.2344 15.2614 10.966C15.5299 10.6975 15.6807 10.3335 15.6807 9.95383C15.6807 9.5742 15.5299 9.21013 15.2614 8.94169C14.993 8.67325 14.6289 8.52245 14.2493 8.52245C13.8697 8.52245 13.5056 8.67325 13.2372 8.94169C12.9687 9.21013 12.8179 9.5742 12.8179 9.95383C12.8179 10.3335 12.9687 10.6975 13.2372 10.966C13.5056 11.2344 13.8697 11.3852 14.2493 11.3852Z" fill="#292A2D" fill-opacity="0.75"/>
</g>
</svg>
