<svg width="42" height="27" viewBox="0 0 42 27" fill="none" xmlns="http://www.w3.org/2000/svg">
<path d="M9.05096 24.3857C9.05096 26.5878 7.80891 26.9587 6.26219 26.9587H5.48884C3.94213 26.9587 2.67664 26.5878 2.67664 24.3857V15.6931C2.67664 13.4909 3.94213 11.7061 5.48884 11.7061H6.26219C7.80891 11.7061 9.05096 13.4909 9.05096 15.6931V24.3857Z" fill="#292A2D"/>
<path d="M39.8446 24.3857C39.8446 26.5878 38.5791 26.9587 37.0324 26.9587H36.259C34.7123 26.9587 33.4468 26.5878 33.4468 24.3857V15.6931C33.4468 13.4909 34.7123 11.7061 36.259 11.7061H37.0324C38.5791 11.7061 39.8446 13.4909 39.8446 15.6931V24.3857Z" fill="#292A2D"/>
<path d="M38.5791 12.726H4.19992V23.9522H38.5791V12.726Z" fill="#292A2D"/>
<path d="M7.71517 21.1637C7.71517 21.4296 7.63545 21.6895 7.48609 21.9106C7.33674 22.1317 7.12446 22.304 6.87609 22.4058C6.62772 22.5076 6.35443 22.5342 6.09076 22.4823C5.8271 22.4304 5.58491 22.3024 5.39482 22.1144C5.20472 21.9263 5.07527 21.6868 5.02282 21.426C4.97038 21.1652 4.99729 20.8948 5.10017 20.6492C5.20305 20.4035 5.37726 20.1935 5.60079 20.0458C5.82431 19.8981 6.08711 19.8192 6.35594 19.8192C6.71643 19.8192 7.06215 19.9609 7.31706 20.213C7.57196 20.4651 7.71517 20.8071 7.71517 21.1637Z" fill="white"/>
<path d="M7.80891 15.16C7.83053 15.2957 7.82217 15.4343 7.78441 15.5665C7.74665 15.6986 7.68039 15.8211 7.59019 15.9255C7.49998 16.0299 7.38798 16.1137 7.26189 16.1712C7.1358 16.2286 6.99862 16.2584 6.85979 16.2584C6.72096 16.2584 6.58378 16.2286 6.45769 16.1712C6.3316 16.1137 6.2196 16.0299 6.1294 15.9255C6.0392 15.8211 5.97294 15.6986 5.93518 15.5665C5.89742 15.4343 5.88906 15.2957 5.91067 15.16C5.88906 15.0244 5.89742 14.8857 5.93518 14.7536C5.97294 14.6214 6.0392 14.4989 6.1294 14.3945C6.2196 14.2902 6.3316 14.2063 6.45769 14.1489C6.58378 14.0914 6.72096 14.0616 6.85979 14.0616C6.99862 14.0616 7.1358 14.0914 7.26189 14.1489C7.38798 14.2063 7.49998 14.2902 7.59019 14.3945C7.68039 14.4989 7.74665 14.6214 7.78441 14.7536C7.82217 14.8857 7.83053 15.0244 7.80891 15.16Z" fill="#F0AD1C"/>
<path d="M7.29333 15.16C7.30863 15.2246 7.30895 15.2918 7.29429 15.3566C7.27963 15.4213 7.25036 15.482 7.20867 15.534C7.16698 15.586 7.11395 15.628 7.05353 15.6569C6.99312 15.6858 6.92689 15.7008 6.85979 15.7008C6.79269 15.7008 6.72645 15.6858 6.66604 15.6569C6.60562 15.628 6.55259 15.586 6.5109 15.534C6.46921 15.482 6.43994 15.4213 6.42528 15.3566C6.41062 15.2918 6.41095 15.2246 6.42624 15.16C6.42615 15.1032 6.43779 15.0469 6.46044 14.9947C6.48308 14.9425 6.51627 14.8955 6.55796 14.8564C6.59964 14.8173 6.64895 14.7871 6.70287 14.7676C6.75678 14.748 6.81417 14.7396 6.8715 14.7427C6.98338 14.7427 7.09067 14.7867 7.16978 14.8649C7.24889 14.9432 7.29333 15.0493 7.29333 15.16Z" fill="white"/>
<path d="M36.634 15.16C36.6556 15.2957 36.6472 15.4343 36.6095 15.5665C36.5717 15.6986 36.5055 15.8211 36.4153 15.9255C36.3251 16.0299 36.2131 16.1137 36.087 16.1712C35.9609 16.2286 35.8237 16.2584 35.6849 16.2584C35.546 16.2584 35.4089 16.2286 35.2828 16.1712C35.1567 16.1137 35.0447 16.0299 34.9545 15.9255C34.8643 15.8211 34.798 15.6986 34.7603 15.5665C34.7225 15.4343 34.7141 15.2957 34.7357 15.16C34.7141 15.0244 34.7225 14.8857 34.7603 14.7536C34.798 14.6214 34.8643 14.4989 34.9545 14.3945C35.0447 14.2902 35.1567 14.2063 35.2828 14.1489C35.4089 14.0914 35.546 14.0616 35.6849 14.0616C35.8237 14.0616 35.9609 14.0914 36.087 14.1489C36.2131 14.2063 36.3251 14.2902 36.4153 14.3945C36.5055 14.4989 36.5717 14.6214 36.6095 14.7536C36.6472 14.8857 36.6556 15.0244 36.634 15.16Z" fill="#F0AD1C"/>
<path d="M37.4542 21.0941C37.4542 21.36 37.3745 21.6199 37.2251 21.841C37.0758 22.0621 36.8635 22.2345 36.6151 22.3362C36.3668 22.438 36.0935 22.4646 35.8298 22.4127C35.5661 22.3608 35.324 22.2328 35.1339 22.0448C34.9438 21.8567 34.8143 21.6172 34.7619 21.3564C34.7094 21.0956 34.7363 20.8253 34.8392 20.5796C34.9421 20.3339 35.1163 20.1239 35.3398 19.9762C35.5634 19.8285 35.8261 19.7496 36.095 19.7496C36.4555 19.7496 36.8012 19.8913 37.0561 20.1434C37.311 20.3956 37.4542 20.7375 37.4542 21.0941Z" fill="white"/>
<path d="M36.1184 15.16C36.1337 15.2246 36.134 15.2918 36.1194 15.3566C36.1047 15.4213 36.0754 15.482 36.0337 15.534C35.9921 15.586 35.939 15.628 35.8786 15.6569C35.8182 15.6858 35.752 15.7008 35.6849 15.7008C35.6178 15.7008 35.5515 15.6858 35.4911 15.6569C35.4307 15.628 35.3777 15.586 35.336 15.534C35.2943 15.482 35.265 15.4213 35.2503 15.3566C35.2357 15.2918 35.236 15.2246 35.2513 15.16C35.2512 15.1032 35.2629 15.0469 35.2855 14.9947C35.3082 14.9425 35.3413 14.8955 35.383 14.8564C35.4247 14.8173 35.474 14.7871 35.5279 14.7676C35.5819 14.748 35.6392 14.7396 35.6966 14.7427C35.8085 14.7427 35.9157 14.7867 35.9949 14.8649C36.074 14.9432 36.1184 15.0493 36.1184 15.16Z" fill="white"/>
<path d="M41.5788 8.25221C41.5788 6.65276 39.9149 6.88457 39.9149 6.88457H38.8369C37.2433 6.88457 36.9621 8.22903 36.9621 8.25221C36.5402 7.00047 34.7592 2.15577 33.189 1.1822C31.6189 0.208623 21.2606 0 21.2606 0C21.2606 0 11.1601 0.0463603 9.35562 1.1822C7.55112 2.31804 6.00441 7.00047 5.55914 8.25221H4.66861C4.56569 7.84415 4.32218 7.48434 3.97999 7.23472C3.6378 6.9851 3.21834 6.86128 2.79381 6.88457H1.7158C1.7158 6.88457 0.0519145 6.65276 0.0519145 8.25221C0.0519145 8.25221 -0.323046 9.73575 0.942445 9.73575H4.01243C3.49797 10.2315 3.09287 10.8273 2.82264 11.4856C2.55241 12.1438 2.4229 12.8503 2.44229 13.5605V20.9782C2.44229 20.9782 1.73924 25.4289 8.41822 25.4289H34.1264C40.782 25.4289 40.0789 20.9782 40.0789 20.9782V13.5605C40.1026 12.8498 39.9751 12.142 39.7046 11.4831C39.4342 10.8243 39.0267 10.2289 38.5088 9.73575H40.6882C41.7428 9.73575 41.5788 8.25221 41.5788 8.25221ZM37.4308 13.7923C37.4308 13.7923 37.7354 16.3885 35.4154 16.713C33.0953 17.0376 30.8455 17.1766 30.8455 17.1766C30.8455 17.1766 31.0564 14.9977 32.6266 14.4414C34.1967 13.885 37.4308 13.7923 37.4308 13.7923ZM8.27761 6.7223L9.12127 4.49699C9.96493 2.24849 11.1132 2.10941 13.1521 1.85443C15.1909 1.59944 21.3309 1.50672 21.3309 1.50672C21.3309 1.50672 27.4475 1.62263 29.4863 1.85443C31.5251 2.08623 32.6735 2.24849 33.5171 4.49699L34.3608 6.7223C34.3608 6.7223 35.1107 8.76218 32.6735 8.76218H9.96493C7.52769 8.76218 8.27761 6.7223 8.27761 6.7223ZM5.11388 13.7923C5.11388 13.7923 8.32448 13.9082 9.89462 14.4414C11.4648 14.9745 11.6757 17.1766 11.6757 17.1766C11.6757 17.1766 9.42592 17.0376 7.10585 16.713C4.78579 16.3885 5.11388 13.7923 5.11388 13.7923ZM11.4179 23.3426H7.03555C7.03555 23.3426 4.43426 23.6671 4.43426 20.7464H12.988C12.988 20.7464 12.7068 23.3426 11.4179 23.3426ZM27.26 21.4418C27.26 21.4418 27.0256 22.6704 25.1508 22.6704H17.3938C15.519 22.6704 15.2847 21.4418 15.2847 21.4418C15.2847 21.4418 15.1909 21.2332 15.0738 20.8855H27.4709C27.3537 21.2332 27.26 21.4418 27.26 21.4418ZM28.2911 18.2429H14.2535C13.902 16.8058 13.7145 15.3918 14.2301 15.0209C15.3784 14.2559 21.2606 14.3255 21.2606 14.3255C21.2606 14.3255 27.1662 14.2559 28.2911 15.0209C28.8301 15.3918 28.6426 16.8058 28.2911 18.2429ZM36.5168 23.3426H32.1345C32.1345 23.3426 29.5566 23.6671 29.5566 20.7464H38.0869C38.0869 20.7464 37.8292 23.3426 36.5168 23.3426Z" fill="#00519B"/>
<path style="mix-blend-mode:multiply" d="M40.0789 20.9783C40.0789 20.9783 38.6963 24.3858 33.4703 24.3858H9.05096C3.84839 24.3858 2.44228 20.9783 2.44228 20.9783C2.44228 20.9783 1.73923 25.4289 8.41821 25.4289H34.1264C40.782 25.4289 40.0789 20.9783 40.0789 20.9783Z" fill="url(#paint0_linear_28_598)"/>
<path style="mix-blend-mode:screen" opacity="0.5" d="M35.9778 9.13307C35.7996 8.56928 35.6509 7.99673 35.5326 7.41772C35.5326 7.97405 35.181 8.66946 33.5171 8.66946H9.19159C7.52771 8.66946 7.19962 7.97405 7.17618 7.41772C7.06928 7.99927 6.92047 8.57252 6.73091 9.13307C6.61817 9.47768 6.62885 9.85018 6.76116 10.1879C6.89347 10.5257 7.13934 10.808 7.4574 10.9875C9.56655 12.2624 13.6208 14.6964 13.9723 14.4877C15.0269 13.9082 19.8077 13.8387 21.3544 13.8387C22.9011 13.8387 27.6818 13.9082 28.7364 14.4877C29.0879 14.6964 33.1422 12.2624 35.2513 10.9875C35.5694 10.808 35.8153 10.5257 35.9476 10.1879C36.0799 9.85018 36.0906 9.47768 35.9778 9.13307Z" fill="url(#paint1_linear_28_598)"/>
<path d="M21.3309 8.73903H33.564C36.1887 8.73903 35.392 6.56007 35.392 6.56007L34.478 4.14932C33.564 1.73856 32.322 1.5763 30.1191 1.29813C27.9162 1.01997 21.3309 0.927246 21.3309 0.927246C21.3309 0.927246 14.7223 1.04315 12.5194 1.29813C10.3165 1.55312 9.07442 1.73856 8.18389 4.14932L7.26992 6.56007C7.26992 6.56007 6.4497 8.73903 9.07442 8.73903H21.3309Z" fill="#66CCDB"/>
<path opacity="0.5" d="M19.4561 1.43713C17.7688 1.46031 14.0661 1.57622 12.5897 1.73848C10.668 1.97028 9.58999 2.10936 8.79319 4.24196L7.99641 6.35137C7.99641 6.35137 7.29335 8.27534 9.58999 8.27534H23.1823L19.4561 1.43713Z" fill="white"/>
<path opacity="0.5" d="M22.2683 1.41406L20.7216 1.46042L24.4243 8.25227H25.9945L22.2683 1.41406Z" fill="white"/>
<defs>
<linearGradient id="paint0_linear_28_598" x1="21.2653" y1="25.4219" x2="21.2653" y2="20.9852" gradientUnits="userSpaceOnUse">
<stop stop-color="white"/>
<stop offset="0.11" stop-color="#DCE7EF"/>
<stop offset="0.36" stop-color="#94B6CE"/>
<stop offset="0.58" stop-color="#5B8EB4"/>
<stop offset="0.76" stop-color="#3272A1"/>
<stop offset="0.91" stop-color="#186095"/>
<stop offset="1" stop-color="#0F5A91"/>
</linearGradient>
<linearGradient id="paint1_linear_28_598" x1="21.3567" y1="14.5063" x2="21.3567" y2="7.427" gradientUnits="userSpaceOnUse">
<stop stop-color="#0D97D3"/>
<stop offset="1"/>
</linearGradient>
</defs>
</svg>
