<svg width="19" height="20" viewBox="0 0 19 20" fill="none" xmlns="http://www.w3.org/2000/svg">
<path id="Vector" d="M10.6734 0.512406C10.3062 0.182501 9.82998 0 9.33636 0C8.84274 0 8.36654 0.182501 7.99936 0.512406L0.664168 7.10341C0.455369 7.29083 0.288333 7.52009 0.173909 7.77628C0.0594849 8.03247 0.000232392 8.30986 0 8.59045V17.9995C0 18.5301 0.210767 19.0389 0.585935 19.4141C0.961102 19.7892 1.46994 20 2.00051 20H4.66785C5.19841 20 5.70725 19.7892 6.08242 19.4141C6.45759 19.0389 6.66835 18.5301 6.66835 17.9995V12.6648C6.66835 12.488 6.73861 12.3183 6.86366 12.1933C6.98872 12.0682 7.15833 11.998 7.33519 11.998H11.3362C11.5131 11.998 11.6827 12.0682 11.8077 12.1933C11.9328 12.3183 12.003 12.488 12.003 12.6648V17.9995C12.003 18.5301 12.2138 19.0389 12.589 19.4141C12.9641 19.7892 13.473 20 14.0035 20H16.6709C17.2015 20 17.7103 19.7892 18.0855 19.4141C18.4606 19.0389 18.6714 18.5301 18.6714 17.9995V8.59045C18.6713 8.30997 18.6123 8.03263 18.4981 7.77645C18.3839 7.52026 18.2171 7.29095 18.0086 7.10341L10.6734 0.512406Z" fill="#001F3F"/>
</svg>
