<svg width="423" height="108" viewBox="0 0 423 108" fill="none" xmlns="http://www.w3.org/2000/svg">
<path d="M15.0097 53.265C15.0097 48.3813 16.1002 44.0191 18.2813 40.1784C20.5098 36.2904 23.5207 33.2795 27.3139 31.1459C31.1545 28.9648 35.4456 27.8742 40.1871 27.8742C45.7347 27.8742 50.5947 29.2967 54.7673 32.1416C58.9398 34.9865 61.8558 38.9219 63.5154 43.9479H52.0646C50.9266 41.5772 49.3145 39.7991 47.2283 38.6137C45.1894 37.4284 42.8187 36.8357 40.116 36.8357C37.2237 36.8357 34.6395 37.5232 32.3636 38.8982C30.1351 40.2259 28.3807 42.1225 27.1005 44.588C25.8677 47.0536 25.2513 49.946 25.2513 53.265C25.2513 56.5367 25.8677 59.429 27.1005 61.942C28.3807 64.4076 30.1351 66.3279 32.3636 67.7029C34.6395 69.0305 37.2237 69.6944 40.116 69.6944C42.8187 69.6944 45.1894 69.1017 47.2283 67.9163C49.3145 66.6835 50.9266 64.8817 52.0646 62.511H63.5154C61.8558 67.5844 58.9398 71.5435 54.7673 74.3885C50.6422 77.1859 45.7821 78.5847 40.1871 78.5847C35.4456 78.5847 31.1545 77.5179 27.3139 75.3842C23.5207 73.2031 20.5098 70.1922 18.2813 66.3516C16.1002 62.511 15.0097 58.1488 15.0097 53.265ZM69.4597 58.3147C69.4597 54.3319 70.242 50.7994 71.8067 47.7174C73.4188 44.6355 75.5762 42.2647 78.2789 40.6052C81.029 38.9456 84.0872 38.1159 87.4537 38.1159C90.3934 38.1159 92.9539 38.7086 95.135 39.8939C97.3635 41.0793 99.1415 42.5729 100.469 44.3747V38.756H110.497V78.158H100.469V72.397C99.1889 74.2462 97.4109 75.7872 95.135 77.02C92.9064 78.2054 90.3223 78.7981 87.3826 78.7981C84.0635 78.7981 81.029 77.9446 78.2789 76.2376C75.5762 74.5307 73.4188 72.1362 71.8067 69.0543C70.242 65.9249 69.4597 62.345 69.4597 58.3147ZM100.469 58.457C100.469 56.0388 99.995 53.9762 99.0467 52.2693C98.0984 50.5149 96.8182 49.1873 95.2061 48.2864C93.594 47.3381 91.8633 46.864 90.0141 46.864C88.1649 46.864 86.458 47.3144 84.8933 48.2153C83.3286 49.1162 82.0484 50.4438 81.0527 52.1982C80.1044 53.9051 79.6302 55.944 79.6302 58.3147C79.6302 60.6855 80.1044 62.7717 81.0527 64.5735C82.0484 66.3279 83.3286 67.6792 84.8933 68.6275C86.5054 69.5758 88.2123 70.05 90.0141 70.05C91.8633 70.05 93.594 69.5995 95.2061 68.6986C96.8182 67.7503 98.0984 66.4227 99.0467 64.7158C99.995 62.9614 100.469 60.8751 100.469 58.457ZM130.18 44.8725C131.46 42.7863 133.119 41.1504 135.158 39.9651C137.244 38.7797 139.615 38.187 142.27 38.187V48.642H139.639C136.509 48.642 134.139 49.377 132.527 50.8468C130.962 52.3167 130.18 54.8771 130.18 58.5281V78.158H120.222V38.756H130.18V44.8725ZM185.605 57.6035C185.605 59.026 185.51 60.3062 185.321 61.4441H156.516C156.753 64.289 157.749 66.5175 159.503 68.1297C161.258 69.7418 163.415 70.5478 165.975 70.5478C169.674 70.5478 172.305 68.9594 173.87 65.7826H184.61C183.472 69.5758 181.29 72.7052 178.066 75.1708C174.842 77.589 170.883 78.7981 166.189 78.7981C162.396 78.7981 158.982 77.9683 155.947 76.3088C152.96 74.6018 150.613 72.2074 148.906 69.1254C147.246 66.0434 146.417 62.4873 146.417 58.457C146.417 54.3793 147.246 50.7994 148.906 47.7174C150.565 44.6355 152.889 42.2647 155.876 40.6052C158.863 38.9456 162.301 38.1159 166.189 38.1159C169.935 38.1159 173.277 38.9219 176.217 40.534C179.204 42.1462 181.504 44.4458 183.116 47.433C184.775 50.3727 185.605 53.7629 185.605 57.6035ZM175.292 54.7586C175.245 52.1982 174.32 50.1593 172.519 48.642C170.717 47.0773 168.512 46.295 165.904 46.295C163.439 46.295 161.352 47.0536 159.645 48.5709C157.986 50.0408 156.967 52.1033 156.587 54.7586H175.292ZM221.038 52.696C223.835 53.2176 226.135 54.6163 227.937 56.8923C229.738 59.1682 230.639 61.776 230.639 64.7158C230.639 67.371 229.975 69.7181 228.648 71.7569C227.368 73.7484 225.495 75.3131 223.029 76.451C220.564 77.589 217.648 78.158 214.281 78.158H192.873V28.5143H213.356C216.723 28.5143 219.615 29.0596 222.033 30.1501C224.499 31.2407 226.348 32.758 227.581 34.702C228.861 36.646 229.501 38.8508 229.501 41.3164C229.501 44.2087 228.719 46.6269 227.154 48.5709C225.637 50.5149 223.598 51.89 221.038 52.696ZM202.83 48.9977H211.934C214.305 48.9977 216.13 48.4761 217.41 47.433C218.691 46.3424 219.331 44.8014 219.331 42.81C219.331 40.8185 218.691 39.2775 217.41 38.187C216.13 37.0965 214.305 36.5512 211.934 36.5512H202.83V48.9977ZM212.859 70.05C215.277 70.05 217.15 69.481 218.477 68.343C219.852 67.2051 220.54 65.5929 220.54 63.5067C220.54 61.373 219.829 59.7135 218.406 58.5281C216.984 57.2953 215.063 56.6789 212.645 56.6789H202.83V70.05H212.859ZM248.532 44.8725C249.812 42.7863 251.472 41.1504 253.511 39.9651C255.597 38.7797 257.968 38.187 260.623 38.187V48.642H257.991C254.862 48.642 252.491 49.377 250.879 50.8468C249.315 52.3167 248.532 54.8771 248.532 58.5281V78.158H238.575V38.756H248.532V44.8725ZM272.379 34.0619C270.625 34.0619 269.155 33.5166 267.97 32.4261C266.832 31.2881 266.263 29.8894 266.263 28.2298C266.263 26.5703 266.832 25.1953 267.97 24.1047C269.155 22.9667 270.625 22.3978 272.379 22.3978C274.134 22.3978 275.58 22.9667 276.718 24.1047C277.903 25.1953 278.496 26.5703 278.496 28.2298C278.496 29.8894 277.903 31.2881 276.718 32.4261C275.58 33.5166 274.134 34.0619 272.379 34.0619ZM277.287 38.756V78.158H267.33V38.756H277.287ZM284.564 58.3147C284.564 54.3319 285.347 50.7994 286.911 47.7174C288.523 44.6355 290.704 42.2647 293.454 40.6052C296.205 38.9456 299.263 38.1159 302.629 38.1159C305.19 38.1159 307.632 38.6849 309.955 39.8228C312.278 40.9134 314.127 42.3832 315.503 44.2324V25.5272H325.602V78.158H315.503V72.3259C314.27 74.2699 312.539 75.8346 310.311 77.02C308.082 78.2054 305.498 78.7981 302.558 78.7981C299.239 78.7981 296.205 77.9446 293.454 76.2376C290.704 74.5307 288.523 72.1362 286.911 69.0543C285.347 65.9249 284.564 62.345 284.564 58.3147ZM315.574 58.457C315.574 56.0388 315.099 53.9762 314.151 52.2693C313.203 50.5149 311.923 49.1873 310.311 48.2864C308.698 47.3381 306.968 46.864 305.119 46.864C303.269 46.864 301.562 47.3144 299.998 48.2153C298.433 49.1162 297.153 50.4438 296.157 52.1982C295.209 53.9051 294.735 55.944 294.735 58.3147C294.735 60.6855 295.209 62.7717 296.157 64.5735C297.153 66.3279 298.433 67.6792 299.998 68.6275C301.61 69.5758 303.317 70.05 305.119 70.05C306.968 70.05 308.698 69.5995 310.311 68.6986C311.923 67.7503 313.203 66.4227 314.151 64.7158C315.099 62.9614 315.574 60.8751 315.574 58.457ZM350.76 38.1159C353.7 38.1159 356.284 38.7086 358.513 39.8939C360.741 41.0319 362.496 42.5255 363.776 44.3747V38.756H373.804V78.4424C373.804 82.0934 373.069 85.3414 371.599 88.1863C370.13 91.0786 367.925 93.3545 364.985 95.014C362.045 96.721 358.489 97.5745 354.317 97.5745C348.722 97.5745 344.122 96.2705 340.519 93.6627C336.963 91.0549 334.948 87.4987 334.473 82.9943H344.359C344.881 84.7961 345.995 86.2185 347.702 87.2617C349.457 88.3522 351.567 88.8975 354.032 88.8975C356.924 88.8975 359.272 88.0203 361.073 86.2659C362.875 84.559 363.776 81.9512 363.776 78.4424V72.3259C362.496 74.1751 360.718 75.7161 358.442 76.9489C356.213 78.1817 353.653 78.7981 350.76 78.7981C347.441 78.7981 344.407 77.9446 341.657 76.2376C338.907 74.5307 336.726 72.1362 335.114 69.0543C333.549 65.9249 332.766 62.345 332.766 58.3147C332.766 54.3319 333.549 50.7994 335.114 47.7174C336.726 44.6355 338.883 42.2647 341.586 40.6052C344.336 38.9456 347.394 38.1159 350.76 38.1159ZM363.776 58.457C363.776 56.0388 363.302 53.9762 362.353 52.2693C361.405 50.5149 360.125 49.1873 358.513 48.2864C356.901 47.3381 355.17 46.864 353.321 46.864C351.472 46.864 349.765 47.3144 348.2 48.2153C346.635 49.1162 345.355 50.4438 344.359 52.1982C343.411 53.9051 342.937 55.944 342.937 58.3147C342.937 60.6855 343.411 62.7717 344.359 64.5735C345.355 66.3279 346.635 67.6792 348.2 68.6275C349.812 69.5758 351.519 70.05 353.321 70.05C355.17 70.05 356.901 69.5995 358.513 68.6986C360.125 67.7503 361.405 66.4227 362.353 64.7158C363.302 62.9614 363.776 60.8751 363.776 58.457ZM420.157 57.6035C420.157 59.026 420.063 60.3062 419.873 61.4441H391.068C391.305 64.289 392.301 66.5175 394.055 68.1297C395.81 69.7418 397.967 70.5478 400.527 70.5478C404.226 70.5478 406.857 68.9594 408.422 65.7826H419.162C418.024 69.5758 415.843 72.7052 412.618 75.1708C409.394 77.589 405.435 78.7981 400.741 78.7981C396.948 78.7981 393.534 77.9683 390.499 76.3088C387.512 74.6018 385.165 72.2074 383.458 69.1254C381.799 66.0434 380.969 62.4873 380.969 58.457C380.969 54.3793 381.799 50.7994 383.458 47.7174C385.118 44.6355 387.441 42.2647 390.428 40.6052C393.415 38.9456 396.853 38.1159 400.741 38.1159C404.487 38.1159 407.829 38.9219 410.769 40.534C413.756 42.1462 416.056 44.4458 417.668 47.433C419.328 50.3727 420.157 53.7629 420.157 57.6035ZM409.845 54.7586C409.797 52.1982 408.873 50.1593 407.071 48.642C405.269 47.0773 403.064 46.295 400.456 46.295C397.991 46.295 395.905 47.0536 394.198 48.5709C392.538 50.0408 391.519 52.1033 391.139 54.7586H409.845Z" fill="white"/>
<circle cx="6.59352" cy="53.5" r="5.92689" fill="#F4CE14"/>
<circle cx="20.423" cy="53.5" r="5.92689" fill="#F4CE14"/>
<circle cx="34.2523" cy="53.5" r="5.92689" fill="#F4CE14"/>
</svg>
