<svg xmlns="http://www.w3.org/2000/svg" xmlns:xlink="http://www.w3.org/1999/xlink" viewBox="0 0 502.8 111.1"><defs><style>.cls-1{fill:none;}.cls-2{fill:#231f20;fill-rule:evenodd;}.cls-3{fill:#bcbec0;}.cls-4{fill:#fff;}.cls-5{clip-path:url(#clip-path);}.cls-6{fill:#292e7c;}</style><clipPath id="clip-path" transform="translate(-4.8)"><polygon class="cls-1" points="94.1 111.1 0 111.1 9.8 75.1 103.9 75.1 94.1 111.1"/></clipPath></defs><g id="Layer_2" data-name="Layer 2"><g id="Layer_1-2" data-name="Layer 1"><path class="cls-2" d="M5.4,66.5C7.1,62,9.9,58.8,13,55.7c6.4-6.3,14-10.6,22.2-14.1A140.3,140.3,0,0,1,67,32.8c18.9-3.3,37.9-3.9,57-3.3s37.2.8,55.8,1.5q21.8.8,43.5,2.1c14.7.9,29.4,1.9,44,3.4,2.1.2,2.1.2,3.1-1.8l11.4-24c.3-.6.6-1-.5-1.2-12.8-2.9-25.7-5.1-38.9-4.6-7.2.2-14.2,1.4-21.3,2.5a159.1,159.1,0,0,0-29.6,7.7c-8.5,3.2-16.7,7.1-25.1,10.7l-1.4.6c.2-.7.7-.8,1-1.1A174.6,174.6,0,0,1,206.8,6.8,146.3,146.3,0,0,1,253.3,0a137.8,137.8,0,0,1,30,4.6c21.2,5.2,42.2,11.2,62.8,18.3,11.8,4,23.4,8.4,34.9,13.3l1.2.5a68.2,68.2,0,0,1-7.9-.1c-11.5-.5-22.2-4.1-32.8-8.2a520.2,520.2,0,0,0-52.6-17.1c-1.3-.3-1.8-.1-2.4,1.1-3.7,7.9-7.5,15.7-11.2,23.6l-.5,1.2c9.6,1,19.1,2.1,28.5,3.8l-7.6,1.1c-5.6.7-11.3,1.4-16.9,2.3a27.2,27.2,0,0,1-7-.5c-7-1.1-14.1-1.9-21.2-2.6-9.7-1.1-19.4-1.9-29-2.6s-17.7-1.2-26.5-1.6c-13.9-.8-27.7-1.4-41.6-1.8s-27.6-.8-41.4-1.1c-8.7-.1-17.3-.2-26,.4-17.4,1.3-34.5,3.8-50.8,10.5-8.4,3.4-16.2,8-22.4,14.9a8.8,8.8,0,0,0-1.2,1.5C10.3,63.9,7.9,65.1,5.4,66.5Z" transform="translate(-4.8)"/><path class="cls-2" d="M225.4,65h148c1.8-.5,2.2-1.2,1.7-3L373,54.6c-.1-.2-.1-.4-.2-.5-1.1-4.7.7-7.1,5.4-6.6a113.9,113.9,0,0,1,20.9,3.4c0,.1.1.1.2.2L386,50.2a29.5,29.5,0,0,0-4.2-.1c-1.7,0-2.6,1-2.7,2.8a11.3,11.3,0,0,0,.6,3.1c1.1,3.8,2.1,7.7,3.2,11.5.4,1.2.8,1.3,1.6.4a39.2,39.2,0,0,1,21.9-12.3l1.1-.3a1.9,1.9,0,0,0,1.4-2c.1-.9-.6-1.2-1.3-1.5l-19.2-7.3-9.8-3.7a3.5,3.5,0,0,1-1.3-.8h9.8a2.9,2.9,0,0,1,1,.3l20.5,9.8c3.1,1.5,3.6,3.2,1.9,6.1a5.5,5.5,0,0,0-.3,5,5.3,5.3,0,0,1-.7,5.8c-2,2.6-3.3,5.6-4.9,8.6a2.6,2.6,0,0,0,2.7-1.5c.6-.9,1-2.2,2.4-1.8s1,1.8.9,2.9c-.2,4.7-.5,9.4-.8,14-.1,1.1-.4,1.9-1.6,1.9H392.9c2.5-.8,3.8-2.6,4.6-5,2-5.8,3.7-11.7,6.2-17.3a22.6,22.6,0,0,1,1.7-3.5,3.8,3.8,0,0,0,.3-4c-1.4-3.1-1.5-3.2-4.8-2.1-5.4,1.9-9.6,5.4-13.4,9.5a53.4,53.4,0,0,0-7.2,10.2l-1.5-4.5a3.5,3.5,0,0,0-3.3-2.7H227.8c-1.3,0-1.6-.3-1.3-1.6A7.1,7.1,0,0,0,225.4,65Z" transform="translate(-4.8)"/><path class="cls-3" d="M376.1,93.1c-2.7,9.9-12.9,18-22.8,18H18.8c-10,0-15.9-8.1-13.2-18h0c2.7-10,12.9-18,22.8-18H362.9c9.9,0,15.8,8,13.2,18Z" transform="translate(-4.8)"/><path class="cls-4" d="M371.9,93.1c-2.6,8.1-12.5,14.7-22.2,14.7H28.2c-9.6,0-15.4-6.6-12.8-14.7h0C18,84.9,27.9,78.3,37.6,78.3H359.1c9.6,0,15.4,6.6,12.8,14.8Z" transform="translate(-4.8)"/><g class="cls-5"><path class="cls-3" d="M506.9,93.1c-2.6,9.9-12.8,18-22.8,18H18.6c-9.9,0-15.8-8.1-13.1-18h0c2.6-10,12.8-18,22.8-18H493.8c9.9,0,15.8,8,13.1,18Z" transform="translate(-4.8)"/></g><path class="cls-6" d="M69.6,83.7l-3.3,18.8H60.6l2-11.6-9.1,11.6H48.7L43.6,90.9l-2,11.6H35.8l3.4-18.8h7.4l5.5,12.8L62.2,83.7h7.4Z" transform="translate(-4.8)"/><path class="cls-6" d="M85.7,95.2l-1.3,7.3H78.7L80,95.2,71.1,83.7h6.7l5.7,7.4,8.4-7.4h6.7Z" transform="translate(-4.8)"/><path class="cls-6" d="M130.4,96.2c-1.4,6.4-3.2,6.8-14.2,6.8-12.6,0-13-.5-11.3-9.9s2.3-10,14.8-10,12.7.4,11.8,6.8h-5.8l.4-2.1H111.6l-1.9,10.5h14.5l.4-2.1Z" transform="translate(-4.8)"/><path class="cls-6" d="M160.2,83.7l-3.3,18.8h-5.7l1.3-7.3H139l-1.3,7.3h-5.8l3.4-18.8H141L139.7,91h13.5l1.3-7.3Z" transform="translate(-4.8)"/><path class="cls-6" d="M179.8,99.4H167.2l-2.2,3.1h-6.4l13.5-18.8h8.4l6.9,18.8h-6.5Zm-1.5-4.2-2.7-7.4-5.3,7.4Z" transform="translate(-4.8)"/><path class="cls-6" d="M215,93.1c-1.7,9.4-1.6,9.9-14.3,9.9s-12.5-.5-10.8-9.9l1.6-9.4h5.8l-1.7,9.4c-.9,5.2-.9,5.2,5.9,5.2s6.8,0,7.7-5.2l1.7-9.4h5.7Z" transform="translate(-4.8)"/><path class="cls-6" d="M224.7,88.4l-.5,2.6H242l-.7,4.1H223.5l-1.3,7.4h-5.8l3.4-18.8h24l-.8,4.7Z" transform="translate(-4.8)"/><path class="cls-6" d="M251.2,88.4l-.4,2.6h17.8l-.8,4.1H250l-1.3,7.4H243l3.3-18.8h24l-.8,4.7Z" transform="translate(-4.8)"/><path class="cls-6" d="M276.1,97.8h18.6l-.8,4.6H269.5l3.3-18.8h24.4l-.9,4.7H277.7l-.4,2.6h18.1l-.8,4.2H276.5Z" transform="translate(-4.8)"/><path class="cls-6" d="M323.5,93.1c-1.7,9.4-1.6,9.9-14.3,9.9s-12.5-.5-10.8-9.9l1.6-9.4h5.8l-1.7,9.4c-.9,5.2-.9,5.2,5.9,5.2s6.8,0,7.7-5.2l1.7-9.4h5.7Z" transform="translate(-4.8)"/><path class="cls-6" d="M349.4,95.3c1.4.8,2.1,1.2,1.3,5.6l-.3,1.6h-5.7l.2-1.6c.4-2.2.6-2.9-2-2.9H331.5l-.8,4.5h-5.8l3.4-18.8h17.2c7.3,0,8.1.6,6.9,7.1C352,93.6,351.1,94.5,349.4,95.3Zm-2.7-4.5c.3-1.6.4-2.4-2.1-2.4H333.2l-.9,4.9h11.5C346.3,93.3,346.4,92.4,346.7,90.8Z" transform="translate(-4.8)"/></g></g></svg>