<svg width="13" height="21" viewBox="0 0 13 21" fill="none" xmlns="http://www.w3.org/2000/svg">
<path d="M6.63636 20.0909C4.8697 20.0909 3.42803 19.8118 2.31136 19.2534C1.1947 18.6951 0.636364 17.9743 0.636364 17.0909C0.636364 16.5076 0.878031 15.9993 1.36136 15.5659C1.8447 15.1326 2.51136 14.7909 3.36136 14.5409L3.93636 16.4409C3.65303 16.5243 3.3947 16.6284 3.16136 16.7534C2.92803 16.8784 2.7697 16.9909 2.68636 17.0909C2.90303 17.3576 3.40303 17.5909 4.18636 17.7909C4.9697 17.9909 5.78636 18.0909 6.63636 18.0909C7.48636 18.0909 8.3072 17.9909 9.09886 17.7909C9.89053 17.5909 10.3947 17.3576 10.6114 17.0909C10.528 16.9909 10.3697 16.8784 10.1364 16.7534C9.90303 16.6284 9.6447 16.5243 9.36136 16.4409L9.93636 14.5409C10.7864 14.7909 11.4489 15.1326 11.9239 15.5659C12.3989 15.9993 12.6364 16.5076 12.6364 17.0909C12.6364 17.9743 12.078 18.6951 10.9614 19.2534C9.8447 19.8118 8.40303 20.0909 6.63636 20.0909ZM6.63636 17.0909C6.45303 17.0909 6.28636 17.0368 6.13636 16.9284C5.98636 16.8201 5.87803 16.6743 5.81136 16.4909C5.42803 15.3076 4.9447 14.3159 4.36136 13.5159C3.77803 12.7159 3.21136 11.9493 2.66136 11.2159C2.12803 10.4826 1.66553 9.72428 1.27386 8.94094C0.882197 8.15761 0.686364 7.19094 0.686364 6.04094C0.686364 4.37428 1.26136 2.96594 2.41136 1.81594C3.56136 0.665942 4.9697 0.0909424 6.63636 0.0909424C8.30303 0.0909424 9.71136 0.665942 10.8614 1.81594C12.0114 2.96594 12.5864 4.37428 12.5864 6.04094C12.5864 7.19094 12.3947 8.15761 12.0114 8.94094C11.628 9.72428 11.1614 10.4826 10.6114 11.2159C10.078 11.9493 9.51553 12.7159 8.92386 13.5159C8.3322 14.3159 7.8447 15.3076 7.46136 16.4909C7.3947 16.6743 7.28636 16.8201 7.13636 16.9284C6.98636 17.0368 6.8197 17.0909 6.63636 17.0909ZM6.63636 8.16594C7.2197 8.16594 7.7197 7.95761 8.13636 7.54094C8.55303 7.12428 8.76136 6.62428 8.76136 6.04094C8.76136 5.45761 8.55303 4.95761 8.13636 4.54094C7.7197 4.12428 7.2197 3.91594 6.63636 3.91594C6.05303 3.91594 5.55303 4.12428 5.13636 4.54094C4.7197 4.95761 4.51136 5.45761 4.51136 6.04094C4.51136 6.62428 4.7197 7.12428 5.13636 7.54094C5.55303 7.95761 6.05303 8.16594 6.63636 8.16594Z" fill="#001F3F"/>
</svg>
