<svg width="39" height="37" viewBox="0 0 39 37" fill="none" xmlns="http://www.w3.org/2000/svg">
<g id="verified">
<mask id="mask0_127_345" style="mask-type:alpha" maskUnits="userSpaceOnUse" x="-1" y="-2" width="41" height="40">
<rect id="Bounding box" x="0.784012" y="-0.293945" width="37.2939" height="37.2939" fill="#D9D9D9" stroke="white" stroke-width="2"/>
</mask>
<g mask="url(#mask0_127_345)">
<path id="verified_2" d="M13.5711 34.3044L14.018 35.0571L14.8233 34.7137L19.431 32.7486L24.0386 34.7137L24.8439 35.0571L25.2908 34.3044L27.8641 29.9703L32.7361 28.8877L33.5978 28.6962L33.5147 27.8173L33.0405 22.8048L36.3599 19.0112L36.9361 18.3527L36.3599 17.6942L33.0405 13.9006L33.5147 8.88812L33.5978 8.00926L32.7361 7.81776L27.8641 6.7351L25.2908 2.40108L24.8439 1.64837L24.0386 1.99178L19.431 3.95682L14.8233 1.99178L14.018 1.64837L13.5711 2.40108L10.9978 6.7351L6.12586 7.81776L5.2641 8.00926L5.34723 8.88812L5.82139 13.9006L2.50199 17.6942L1.9258 18.3527L2.50199 19.0112L5.82139 22.8048L5.34723 27.8173L5.2641 28.6962L6.12586 28.8877L10.9978 29.9703L13.5711 34.3044ZM17.8868 22.1591L14.0805 18.3527L14.7334 17.6999L17.1881 20.0975L17.8951 20.7881L18.594 20.0892L24.1243 14.5589L24.7937 15.2522L17.8868 22.1591Z" fill="#001F3F" stroke="white" stroke-width="2"/>
</g>
</g>
</svg>
